<svg width="32" height="32" viewBox="0 0 32 32" fill="none" xmlns="http://www.w3.org/2000/svg">
<mask id="mask0_252_245" style="mask-type:alpha" maskUnits="userSpaceOnUse" x="0" y="0" width="32" height="32">
<path d="M16 32C24.8366 32 32 24.8366 32 16C32 7.16344 24.8366 0 16 0C7.16344 0 0 7.16344 0 16C0 24.8366 7.16344 32 16 32Z" fill="#D9D9D9"/>
</mask>
<g mask="url(#mask0_252_245)">
<path d="M36.3387 0H-4.2666V1.23077H36.3387V0Z" fill="#343434"/>
<path d="M36.3387 3.69226H-4.2666V6.1538H36.3387V3.69226Z" fill="#343434"/>
<path d="M36.3387 8.61539H-4.2666V12.3077H36.3387V8.61539Z" fill="#343434"/>
<path d="M36.3387 14.7692H-4.2666V19.6922H36.3387V14.7692Z" fill="#343434"/>
<path d="M36.3387 22.1538H-4.2666V32H36.3387V22.1538Z" fill="#343434"/>
</g>
</svg>
